<mxfile host="app.diagrams.net" modified="2023-07-03T02:41:28.386Z" agent="Mozilla/5.0 (Windows NT 10.0; Win64; x64) AppleWebKit/537.36 (KHTML, like Gecko) Chrome/114.0.0.0 Safari/537.36" etag="36udM4JlnNEG_-Hl2F72" version="21.5.2" type="device">
  <diagram name="페이지-1" id="U5wLW_S8CEK8IhgSUhKD">
    <mxGraphModel dx="766" dy="-54" grid="1" gridSize="10" guides="1" tooltips="1" connect="1" arrows="1" fold="1" page="0" pageScale="1" pageWidth="827" pageHeight="1169" math="0" shadow="0">
      <root>
        <mxCell id="0" />
        <mxCell id="1" parent="0" />
        <mxCell id="EkfJCmy_ZQX34YRY0NpP-1" value="{}" style="rounded=0;whiteSpace=wrap;html=1;fontSize=16;" vertex="1" parent="1">
          <mxGeometry x="-120" y="400" width="120" height="60" as="geometry" />
        </mxCell>
        <mxCell id="EkfJCmy_ZQX34YRY0NpP-3" style="edgeStyle=none;curved=1;rounded=0;orthogonalLoop=1;jettySize=auto;html=1;exitX=0.5;exitY=1;exitDx=0;exitDy=0;fontSize=12;startSize=8;endSize=8;" edge="1" parent="1" source="EkfJCmy_ZQX34YRY0NpP-2" target="EkfJCmy_ZQX34YRY0NpP-4">
          <mxGeometry relative="1" as="geometry">
            <mxPoint x="79.72727272727263" y="520" as="targetPoint" />
          </mxGeometry>
        </mxCell>
        <mxCell id="EkfJCmy_ZQX34YRY0NpP-8" style="edgeStyle=none;curved=1;rounded=0;orthogonalLoop=1;jettySize=auto;html=1;exitX=0.75;exitY=1;exitDx=0;exitDy=0;entryX=0.5;entryY=0;entryDx=0;entryDy=0;fontSize=12;startSize=8;endSize=8;" edge="1" parent="1" source="EkfJCmy_ZQX34YRY0NpP-2" target="EkfJCmy_ZQX34YRY0NpP-7">
          <mxGeometry relative="1" as="geometry" />
        </mxCell>
        <mxCell id="EkfJCmy_ZQX34YRY0NpP-2" value="생성자 함수" style="rounded=1;whiteSpace=wrap;html=1;fontSize=16;" vertex="1" parent="1">
          <mxGeometry x="20" y="400" width="120" height="60" as="geometry" />
        </mxCell>
        <mxCell id="EkfJCmy_ZQX34YRY0NpP-6" style="edgeStyle=none;curved=1;rounded=0;orthogonalLoop=1;jettySize=auto;html=1;exitX=0.5;exitY=1;exitDx=0;exitDy=0;entryX=1;entryY=0.5;entryDx=0;entryDy=0;fontSize=12;startSize=8;endSize=8;" edge="1" parent="1" source="EkfJCmy_ZQX34YRY0NpP-4" target="EkfJCmy_ZQX34YRY0NpP-5">
          <mxGeometry relative="1" as="geometry" />
        </mxCell>
        <mxCell id="EkfJCmy_ZQX34YRY0NpP-4" value="new 생성자함수()" style="rounded=0;whiteSpace=wrap;html=1;fontSize=16;" vertex="1" parent="1">
          <mxGeometry y="520" width="160" height="60" as="geometry" />
        </mxCell>
        <mxCell id="EkfJCmy_ZQX34YRY0NpP-5" value="새로운 {}" style="rounded=0;whiteSpace=wrap;html=1;fontSize=16;" vertex="1" parent="1">
          <mxGeometry x="-120" y="600" width="120" height="60" as="geometry" />
        </mxCell>
        <mxCell id="EkfJCmy_ZQX34YRY0NpP-10" style="edgeStyle=none;curved=1;rounded=0;orthogonalLoop=1;jettySize=auto;html=1;exitX=0.5;exitY=1;exitDx=0;exitDy=0;entryX=1;entryY=0.5;entryDx=0;entryDy=0;fontSize=12;startSize=8;endSize=8;" edge="1" parent="1" source="EkfJCmy_ZQX34YRY0NpP-7" target="EkfJCmy_ZQX34YRY0NpP-9">
          <mxGeometry relative="1" as="geometry" />
        </mxCell>
        <mxCell id="EkfJCmy_ZQX34YRY0NpP-7" value="new 생성자함수()" style="rounded=0;whiteSpace=wrap;html=1;fontSize=16;" vertex="1" parent="1">
          <mxGeometry x="200" y="520" width="160" height="60" as="geometry" />
        </mxCell>
        <mxCell id="EkfJCmy_ZQX34YRY0NpP-9" value="새로운 {}" style="rounded=0;whiteSpace=wrap;html=1;fontSize=16;" vertex="1" parent="1">
          <mxGeometry x="120" y="600" width="120" height="60" as="geometry" />
        </mxCell>
        <mxCell id="EkfJCmy_ZQX34YRY0NpP-11" value="{}" style="rounded=0;whiteSpace=wrap;html=1;fontSize=16;" vertex="1" parent="1">
          <mxGeometry x="-120" y="760" width="120" height="60" as="geometry" />
        </mxCell>
        <mxCell id="EkfJCmy_ZQX34YRY0NpP-12" value="생성자 함수" style="rounded=1;whiteSpace=wrap;html=1;fontSize=16;" vertex="1" parent="1">
          <mxGeometry x="20" y="760" width="120" height="60" as="geometry" />
        </mxCell>
        <mxCell id="EkfJCmy_ZQX34YRY0NpP-16" style="edgeStyle=none;curved=1;rounded=0;orthogonalLoop=1;jettySize=auto;html=1;exitX=0.5;exitY=0;exitDx=0;exitDy=0;entryX=0.5;entryY=1;entryDx=0;entryDy=0;fontSize=12;startSize=8;endSize=8;" edge="1" parent="1" source="EkfJCmy_ZQX34YRY0NpP-14" target="EkfJCmy_ZQX34YRY0NpP-11">
          <mxGeometry relative="1" as="geometry" />
        </mxCell>
        <mxCell id="EkfJCmy_ZQX34YRY0NpP-17" value="프로토타입" style="edgeLabel;html=1;align=center;verticalAlign=middle;resizable=0;points=[];fontSize=16;" vertex="1" connectable="0" parent="EkfJCmy_ZQX34YRY0NpP-16">
          <mxGeometry x="-0.0222" y="-1" relative="1" as="geometry">
            <mxPoint as="offset" />
          </mxGeometry>
        </mxCell>
        <mxCell id="EkfJCmy_ZQX34YRY0NpP-19" style="edgeStyle=none;curved=1;rounded=0;orthogonalLoop=1;jettySize=auto;html=1;exitX=0.5;exitY=1;exitDx=0;exitDy=0;fontSize=12;startSize=8;endSize=8;" edge="1" parent="1" source="EkfJCmy_ZQX34YRY0NpP-14" target="EkfJCmy_ZQX34YRY0NpP-18">
          <mxGeometry relative="1" as="geometry" />
        </mxCell>
        <mxCell id="EkfJCmy_ZQX34YRY0NpP-14" value="새로운 생성자 함수" style="rounded=1;whiteSpace=wrap;html=1;fontSize=16;" vertex="1" parent="1">
          <mxGeometry x="-120" y="880" width="120" height="60" as="geometry" />
        </mxCell>
        <mxCell id="EkfJCmy_ZQX34YRY0NpP-21" style="edgeStyle=none;curved=1;rounded=0;orthogonalLoop=1;jettySize=auto;html=1;exitX=1;exitY=0.5;exitDx=0;exitDy=0;entryX=0;entryY=0.5;entryDx=0;entryDy=0;fontSize=12;startSize=8;endSize=8;" edge="1" parent="1" source="EkfJCmy_ZQX34YRY0NpP-18" target="EkfJCmy_ZQX34YRY0NpP-20">
          <mxGeometry relative="1" as="geometry" />
        </mxCell>
        <mxCell id="EkfJCmy_ZQX34YRY0NpP-18" value="new 새로운 생성자 함수()" style="rounded=1;whiteSpace=wrap;html=1;fontSize=16;" vertex="1" parent="1">
          <mxGeometry x="-120" y="980" width="120" height="60" as="geometry" />
        </mxCell>
        <mxCell id="EkfJCmy_ZQX34YRY0NpP-22" style="edgeStyle=none;curved=1;rounded=0;orthogonalLoop=1;jettySize=auto;html=1;exitX=0.5;exitY=0;exitDx=0;exitDy=0;entryX=0.75;entryY=1;entryDx=0;entryDy=0;fontSize=12;startSize=8;endSize=8;" edge="1" parent="1" source="EkfJCmy_ZQX34YRY0NpP-20" target="EkfJCmy_ZQX34YRY0NpP-11">
          <mxGeometry relative="1" as="geometry" />
        </mxCell>
        <mxCell id="EkfJCmy_ZQX34YRY0NpP-23" value="prototype" style="edgeLabel;html=1;align=center;verticalAlign=middle;resizable=0;points=[];fontSize=16;" vertex="1" connectable="0" parent="EkfJCmy_ZQX34YRY0NpP-22">
          <mxGeometry x="-0.4691" y="-1" relative="1" as="geometry">
            <mxPoint as="offset" />
          </mxGeometry>
        </mxCell>
        <mxCell id="EkfJCmy_ZQX34YRY0NpP-20" value="{}" style="rounded=0;whiteSpace=wrap;html=1;fontSize=16;" vertex="1" parent="1">
          <mxGeometry x="40" y="980" width="120" height="60" as="geometry" />
        </mxCell>
      </root>
    </mxGraphModel>
  </diagram>
</mxfile>
